<svg id="visual" viewBox="0 0 900 600" width="900" height="600" xmlns="http://www.w3.org/2000/svg" xmlns:xlink="http://www.w3.org/1999/xlink" version="1.1"><rect x="0" y="0" width="900" height="600" fill="#001220"></rect><defs><linearGradient id="grad1_0" x1="33.3%" y1="0%" x2="100%" y2="100%"><stop offset="20%" stop-color="#fbae3c" stop-opacity="1"></stop><stop offset="80%" stop-color="#fbae3c" stop-opacity="1"></stop></linearGradient></defs><defs><linearGradient id="grad1_1" x1="33.3%" y1="0%" x2="100%" y2="100%"><stop offset="20%" stop-color="#fbae3c" stop-opacity="1"></stop><stop offset="80%" stop-color="#96446e" stop-opacity="1"></stop></linearGradient></defs><defs><linearGradient id="grad1_2" x1="33.3%" y1="0%" x2="100%" y2="100%"><stop offset="20%" stop-color="#001220" stop-opacity="1"></stop><stop offset="80%" stop-color="#96446e" stop-opacity="1"></stop></linearGradient></defs><defs><linearGradient id="grad2_0" x1="0%" y1="0%" x2="66.7%" y2="100%"><stop offset="20%" stop-color="#fbae3c" stop-opacity="1"></stop><stop offset="80%" stop-color="#fbae3c" stop-opacity="1"></stop></linearGradient></defs><defs><linearGradient id="grad2_1" x1="0%" y1="0%" x2="66.7%" y2="100%"><stop offset="20%" stop-color="#96446e" stop-opacity="1"></stop><stop offset="80%" stop-color="#fbae3c" stop-opacity="1"></stop></linearGradient></defs><defs><linearGradient id="grad2_2" x1="0%" y1="0%" x2="66.7%" y2="100%"><stop offset="20%" stop-color="#96446e" stop-opacity="1"></stop><stop offset="80%" stop-color="#001220" stop-opacity="1"></stop></linearGradient></defs><g transform="translate(900, 0)"><path d="M0 486.7C-56.2 449.9 -112.4 413 -157.3 379.7C-202.2 346.4 -235.7 316.6 -288.5 288.5C-341.3 260.4 -413.4 234.1 -449.7 186.3C-486 138.5 -486.4 69.2 -486.7 0L0 0Z" fill="#3d3056"></path><path d="M0 324.5C-37.5 299.9 -74.9 275.4 -104.9 253.1C-134.8 230.9 -157.1 211.1 -192.3 192.3C-227.5 173.6 -275.6 156 -299.8 124.2C-324 92.3 -324.2 46.2 -324.5 0L0 0Z" fill="#e1685e"></path><path d="M0 162.2C-18.7 150 -37.5 137.7 -52.4 126.6C-67.4 115.5 -78.6 105.5 -96.2 96.2C-113.8 86.8 -137.8 78 -149.9 62.1C-162 46.2 -162.1 23.1 -162.2 0L0 0Z" fill="#fbae3c"></path></g><g transform="translate(0, 600)"><path d="M0 -486.7C65.1 -469.5 130.2 -452.3 171.4 -413.9C212.7 -375.5 230 -315.9 279.3 -279.3C328.6 -242.7 409.8 -229 449.7 -186.3C489.6 -143.5 488.2 -71.8 486.7 0L0 0Z" fill="#3d3056"></path><path d="M0 -324.5C43.4 -313 86.8 -301.5 114.3 -275.9C141.8 -250.3 153.3 -210.6 186.2 -186.2C219.1 -161.8 273.2 -152.7 299.8 -124.2C326.4 -95.7 325.4 -47.8 324.5 0L0 0Z" fill="#e1685e"></path><path d="M0 -162.2C21.7 -156.5 43.4 -150.8 57.1 -138C70.9 -125.2 76.7 -105.3 93.1 -93.1C109.5 -80.9 136.6 -76.3 149.9 -62.1C163.2 -47.8 162.7 -23.9 162.2 0L0 0Z" fill="#fbae3c"></path></g></svg>